<?xml version="1.0" standalone="no"?>
<!DOCTYPE svg PUBLIC "-//W3C//DTD SVG 20010904//EN"
 "http://www.w3.org/TR/2001/REC-SVG-20010904/DTD/svg10.dtd">
<svg version="1.0" xmlns="http://www.w3.org/2000/svg"
 width="512.000000pt" height="512.000000pt" viewBox="0 0 512.000000 512.000000"
 preserveAspectRatio="xMidYMid meet">
<metadata>
Created by potrace 1.16, written by Peter Selinger 2001-2019
</metadata>
<g transform="translate(0.000000,512.000000) scale(0.100000,-0.100000)"
fill="#000000" stroke="none">
<path d="M3291 4885 c-69 -31 -170 -112 -299 -243 -72 -75 -135 -132 -138
-129 -4 4 -20 -5 -36 -18 -32 -27 -44 -30 -53 -16 -3 6 -21 1 -41 -11 -33 -19
-44 -20 -207 -13 -142 6 -178 10 -205 26 -40 23 -40 23 -44 2 -3 -14 -20 -1
-69 52 -143 155 -253 258 -326 306 -68 44 -82 50 -122 47 -86 -6 -105 -69
-106 -363 0 -88 4 -184 8 -213 5 -34 4 -52 -2 -48 -14 9 -19 -89 -9 -182 l10
-84 -66 -133 c-72 -148 -111 -199 -171 -227 l-40 -19 53 5 c31 3 74 17 100 31
l47 26 -35 -36 c-42 -44 -99 -75 -137 -75 -24 -1 -26 -2 -10 -11 10 -6 52 -9
93 -7 l76 3 -34 -28 c-18 -16 -45 -31 -60 -34 -40 -8 -22 -25 22 -21 21 2 36
0 34 -4 -3 -5 -19 -8 -35 -8 l-30 0 30 -57 c17 -32 35 -71 41 -87 9 -24 8 -27
-5 -22 -8 3 -22 3 -31 -1 -12 -4 -8 -9 16 -20 26 -10 74 -12 229 -7 l196 7 33
33 c19 18 61 52 93 76 l60 43 -48 3 c-73 3 -114 12 -108 22 4 6 -1 7 -11 3
-11 -4 -15 -2 -11 4 4 6 -1 10 -11 9 -9 0 -16 5 -14 12 1 8 -2 11 -7 7 -9 -5
-37 32 -95 128 -19 31 -35 33 -78 11 l-30 -16 26 35 c34 44 63 64 107 71 53
10 78 -10 104 -83 41 -112 122 -171 208 -151 52 11 58 20 15 20 -111 0 -196
76 -213 193 -10 65 1 59 15 -7 14 -67 56 -127 105 -151 32 -15 53 -16 132 -11
90 7 93 6 118 -18 l25 -25 0 48 c0 64 -24 139 -59 189 -56 76 -171 121 -268
105 -51 -9 -103 -6 -103 5 0 4 23 23 51 42 47 32 58 35 118 34 67 0 86 -4 109
-17 16 -11 15 3 -3 33 -11 17 -9 16 7 -4 53 -66 58 -68 26 -6 -41 78 -105 131
-193 161 -37 12 -47 18 -25 14 101 -16 194 -94 249 -208 l40 -82 0 103 c1 84
5 111 23 149 21 45 23 46 29 23 7 -25 7 -25 8 -2 1 13 10 40 21 60 10 20 22
46 26 57 5 15 9 9 15 -27 4 -25 25 -87 48 -137 22 -50 46 -120 53 -155 l12
-64 17 81 c9 45 33 116 52 159 19 42 38 91 42 110 l8 33 14 -39 c7 -22 16 -65
20 -95 7 -53 8 -54 13 -21 l6 35 17 -32 c27 -50 21 -85 -33 -190 -73 -142 -82
-219 -45 -373 7 -30 16 -70 19 -88 6 -32 5 -33 -16 -17 -17 11 -49 15 -129 15
-90 0 -108 -3 -122 -18 -26 -28 -21 -40 28 -74 44 -31 85 -85 85 -113 0 -42
-127 -105 -211 -105 -38 0 -164 58 -160 73 3 13 -31 35 -46 30 -7 -3 -10 -9
-7 -14 3 -5 0 -9 -5 -9 -6 0 -11 -5 -11 -10 0 -6 12 -9 28 -8 15 2 28 -1 29
-5 3 -19 61 -71 98 -88 50 -23 152 -25 202 -4 20 9 51 27 69 40 26 20 34 22
43 11 26 -31 120 -66 178 -66 64 0 144 31 177 69 34 38 6 43 -59 10 -53 -27
-67 -30 -122 -26 -62 5 -133 36 -162 71 -22 27 -3 66 62 128 l62 59 0 157 c0
170 3 182 67 279 16 23 29 45 29 50 1 4 29 33 63 63 33 30 52 45 42 33 -23
-27 -18 -28 29 -6 49 23 124 7 200 -43 72 -48 57 -60 -53 -43 -72 11 -84 10
-151 -10 -100 -30 -160 -89 -190 -186 -21 -66 -27 -126 -15 -138 4 -3 16 5 27
19 19 25 21 26 113 19 83 -7 98 -5 138 14 57 28 97 81 113 151 l13 55 -4 -52
c-7 -106 -93 -184 -206 -186 -70 -2 -56 -16 24 -24 37 -4 61 -1 83 11 44 22
101 93 115 141 14 50 25 64 57 77 41 15 100 -1 142 -39 44 -40 51 -58 15 -42
-42 20 -68 4 -107 -63 -19 -35 -41 -62 -47 -61 -6 2 -9 -3 -7 -10 5 -14 -29
-41 -65 -51 -22 -7 -21 -5 6 12 18 11 35 26 39 33 4 6 -10 0 -31 -15 -21 -14
-45 -26 -54 -26 -12 0 -12 -2 -1 -9 8 -5 -19 -8 -68 -7 -44 2 -80 2 -78 0 1
-1 25 -14 52 -29 28 -15 73 -50 102 -78 l51 -50 79 7 c104 9 128 8 193 -9 45
-12 48 -14 15 -10 -22 2 -67 7 -100 9 l-60 5 60 -13 60 -14 -110 5 c-60 2
-116 6 -122 9 -7 2 -13 -1 -13 -6 0 -6 7 -10 16 -10 8 0 12 -4 9 -10 -3 -5 -1
-10 4 -10 6 0 11 -6 11 -14 0 -8 10 -22 23 -31 20 -15 20 -16 2 -11 -66 19
-181 37 -250 41 l-80 4 78 -11 c42 -6 77 -14 77 -18 0 -4 11 -5 24 -3 21 4
176 -59 176 -71 0 -3 -19 3 -42 14 -24 10 -45 15 -48 11 -3 -4 -15 -14 -28
-23 l-23 -15 53 -44 c29 -23 58 -48 63 -55 8 -9 19 -9 50 3 22 8 48 17 58 20
10 3 16 11 13 18 -3 8 2 11 12 8 10 -2 28 7 41 21 14 14 31 26 39 26 9 0 13 2
10 5 -3 3 20 31 50 61 41 43 51 58 41 65 -10 6 -7 9 11 10 14 1 6 5 -20 9
l-45 7 40 2 c22 1 51 8 65 16 l25 14 -27 1 c-16 0 -28 4 -28 9 0 5 18 44 41
85 l41 76 -39 1 c-37 2 -37 2 9 8 62 9 66 15 21 29 -21 7 -48 20 -60 30 -22
17 -22 17 41 18 67 2 131 23 70 24 -32 0 -103 42 -142 83 l-23 25 48 -24 c27
-14 73 -27 103 -30 l55 -5 -47 25 c-61 34 -85 66 -154 215 l-57 125 11 68 c16
91 16 222 1 212 -9 -5 -10 2 -5 22 14 63 19 341 7 437 -13 111 -28 148 -66
165 -33 15 -42 15 -84 -3z m-1432 -118 c76 -45 219 -184 278 -269 79 -115 114
-193 127 -283 7 -50 -9 -25 -19 30 -23 132 -205 358 -400 498 -72 51 -99 56
-122 21 -16 -25 -18 -51 -18 -234 1 -170 4 -212 18 -249 24 -61 12 -65 -15 -5
-21 45 -23 63 -23 219 0 245 23 324 90 311 16 -4 54 -21 84 -39z m1505 20 c32
-32 46 -121 46 -284 0 -141 -11 -223 -36 -261 -23 -35 -27 -22 -9 29 39 109
39 436 0 496 -20 30 -39 29 -100 -6 -181 -105 -371 -334 -441 -534 -18 -52
-23 -61 -19 -32 8 49 62 178 105 249 82 134 229 278 344 336 71 36 80 37 110
7z m-1444 -218 c32 -17 82 -53 112 -81 l53 -50 -57 47 c-32 26 -86 62 -120 81
-35 18 -59 34 -54 34 4 0 34 -14 66 -31z m1239 0 c-24 -17 -69 -54 -98 -83
-48 -45 -51 -46 -20 -10 34 41 136 123 153 124 5 0 -11 -14 -35 -31z m44 -58
c-48 -16 -83 -37 -158 -92 l-30 -23 25 28 c52 58 136 103 195 105 11 0 -3 -8
-32 -18z m-1225 -30 c26 -17 60 -47 76 -68 l30 -38 -46 42 c-44 40 -105 77
-158 95 -20 6 -17 7 13 3 21 -2 60 -18 85 -34z m-23 -50 c22 -10 56 -36 75
-57 30 -33 31 -35 5 -13 -44 39 -79 59 -127 74 -32 10 -36 14 -18 14 14 0 43
-8 65 -18z m1235 5 c-63 -18 -88 -32 -139 -80 -37 -34 -41 -36 -24 -11 46 67
109 105 173 104 35 -1 35 -1 -10 -13z m-383 -23 c-6 -15 -23 -39 -36 -53 l-24
-25 18 35 c16 32 44 70 51 70 2 0 -2 -12 -9 -27z m-888 -7 c15 -8 44 -33 64
-55 41 -46 50 -67 14 -33 -28 27 -57 31 -36 6 8 -10 -1 -8 -25 7 l-38 22 21
-41 c28 -56 19 -54 -14 2 -14 25 -34 47 -43 49 -11 3 -8 5 8 6 22 1 23 2 8 17
-9 9 -31 20 -49 24 -33 8 -32 8 14 9 26 1 60 -5 76 -13z m411 -49 c-1 -13 -26
16 -41 48 -7 13 -1 10 15 -8 14 -15 26 -33 26 -40z m922 48 c-33 -14 -36 -35
-5 -35 27 0 7 -11 -29 -16 -18 -3 -55 -16 -82 -30 l-49 -25 34 42 c41 50 92
79 134 79 l30 -1 -33 -14z m-47 -109 c-36 -62 -42 -58 -9 5 14 28 28 49 31 46
2 -3 -7 -26 -22 -51z m-1174 -23 c13 -16 12 -17 -3 -4 -10 7 -18 15 -18 17 0
8 8 3 21 -13z m518 -73 c0 -25 -6 -67 -13 -95 l-14 -50 -1 111 c-1 108 7 149
20 102 4 -13 7 -43 8 -68z m218 18 c-3 -7 -5 -2 -5 12 0 14 2 19 5 13 2 -7 2
-19 0 -25z m-1064 -75 c3 -43 4 -79 2 -81 -2 -2 -11 10 -19 27 -16 31 -21 86
-10 115 13 33 21 13 27 -61z m1711 -15 c-3 -21 -13 -47 -22 -58 -16 -20 -17
-18 -17 52 0 53 4 76 15 85 12 9 16 7 23 -15 4 -15 5 -44 1 -64z m-657 -60
c-2 -24 -4 -7 -4 37 0 44 2 63 4 43 2 -21 2 -57 0 -80z m346 105 c-18 -2 -48
-2 -65 0 -18 2 -4 4 32 4 36 0 50 -2 33 -4z m-1180 -10 c-7 -2 -19 -2 -25 0
-7 3 -2 5 12 5 14 0 19 -2 13 -5z m1254 1 c-3 -3 -12 -4 -19 -1 -8 3 -5 6 6 6
11 1 17 -2 13 -5z m-1300 -10 c-3 -3 -12 -4 -19 -1 -8 3 -5 6 6 6 11 1 17 -2
13 -5z m238 -27 c26 -18 64 -53 83 -77 32 -40 30 -39 -19 11 -31 31 -73 66
-95 77 -21 12 -34 21 -28 22 7 0 33 -15 59 -33z m137 -139 c-6 -6 -13 -5 -17
3 -5 8 -4 10 3 5 9 -5 13 16 14 76 l2 83 3 -79 c2 -44 0 -83 -5 -88z m545 125
c-3 -10 -5 -4 -5 12 0 17 2 24 5 18 2 -7 2 -21 0 -30z m123 24 c0 -2 -10 -12
-22 -23 l-23 -19 19 23 c18 21 26 27 26 19z m223 -34 c-13 -2 -33 -2 -45 0
-13 2 -3 4 22 4 25 0 35 -2 23 -4z m-1205 -10 c-15 -2 -42 -2 -60 0 -18 2 -6
4 27 4 33 0 48 -2 33 -4z m1115 0 c-7 -2 -19 -2 -25 0 -7 3 -2 5 12 5 14 0 19
-2 13 -5z m154 1 c-3 -3 -12 -4 -19 -1 -8 3 -5 6 6 6 11 1 17 -2 13 -5z m-212
-14 c-27 -12 -43 -12 -25 0 8 5 22 9 30 9 10 0 8 -3 -5 -9z m-208 -37 c-3 -10
-5 -4 -5 12 0 17 2 24 5 18 2 -7 2 -21 0 -30z m41 -3 c-22 -30 -35 -41 -22
-17 9 16 36 47 41 47 2 0 -6 -13 -19 -30z m82 6 c0 -2 -17 -16 -37 -31 l-38
-26 35 30 c34 31 40 35 40 27z m-400 -61 c0 -5 -5 -3 -10 5 -5 8 -10 20 -10
25 0 6 5 3 10 -5 5 -8 10 -19 10 -25z m-339 -22 c13 -16 12 -17 -3 -4 -10 7
-18 15 -18 17 0 8 8 3 21 -13z m669 13 c0 -2 -8 -10 -17 -17 -16 -13 -17 -12
-4 4 13 16 21 21 21 13z m27 -30 c-16 -13 -42 -43 -58 -67 -16 -24 -29 -39
-29 -33 0 16 55 89 82 108 34 24 37 19 5 -8z m-1169 -43 c-25 -27 -57 -66 -72
-88 -35 -54 -33 -30 3 26 24 39 96 109 110 109 3 0 -15 -21 -41 -47z m1695
-12 c20 -22 43 -55 52 -73 l16 -33 -23 30 c-12 17 -45 54 -73 84 -27 30 -41
49 -29 43 11 -6 37 -29 57 -51z m-1228 29 c10 -11 16 -20 13 -20 -3 0 -13 9
-23 20 -10 11 -16 20 -13 20 3 0 13 -9 23 -20z m0 -161 c10 -15 -1 -23 -20
-15 -9 3 -13 10 -10 16 8 13 22 13 30 -1z m-536 -17 c-13 -10 -42 -29 -64 -41
l-40 -23 20 22 c19 21 81 59 99 60 5 0 -2 -8 -15 -18z m1281 -34 c0 -21 -4
-22 -31 -8 -22 12 -25 30 -7 48 10 10 15 9 25 -5 7 -9 13 -25 13 -35z m581 10
l34 -29 -43 22 c-50 27 -74 50 -44 42 11 -2 35 -18 53 -35z m-1283 -2 c2 -10
-1 -23 -7 -29 -16 -16 -34 6 -26 33 8 24 28 22 33 -4z m-124 -36 c8 -58 46
-110 81 -110 22 0 63 39 91 86 11 18 12 17 19 -9 14 -54 -50 -107 -130 -107
-68 0 -125 47 -145 120 -14 54 -5 70 40 70 37 0 37 0 44 -50z m976 15 c0 -130
-169 -204 -260 -114 -29 30 -40 72 -21 84 6 3 15 -5 22 -17 18 -36 61 -78 80
-78 39 0 78 50 93 122 6 26 13 29 74 37 7 0 12 -12 12 -34z m-1355 -247 c15
-23 42 -54 59 -70 35 -32 27 -37 -13 -9 -23 17 -90 121 -78 121 2 0 17 -19 32
-42z m1686 -35 c-11 -22 -27 -46 -37 -54 -11 -9 -8 1 9 26 14 22 29 54 33 70
5 19 9 24 12 13 2 -9 -6 -34 -17 -55z m-1554 -8 c10 -7 35 -18 54 -23 l34 -10
-35 -1 c-42 -1 -74 19 -95 59 -21 40 -19 51 4 17 10 -15 27 -34 38 -42z m1443
25 c-20 -38 -70 -60 -130 -59 l-55 1 53 8 c55 8 98 30 121 62 17 25 26 16 11
-12z m55 8 c-9 -27 -42 -66 -70 -80 -11 -6 -3 5 17 25 20 20 39 46 43 57 3 11
9 20 11 20 3 0 2 -10 -1 -22z m-1660 -74 c39 -13 63 -23 54 -24 -34 -1 -209
71 -209 85 0 3 19 -4 43 -16 23 -13 74 -33 112 -45z m1826 26 c-13 -11 -28
-20 -35 -20 -6 0 3 9 19 20 38 25 47 25 16 0z m-414 -6 c-3 -3 -12 -4 -19 -1
-8 3 -5 6 6 6 11 1 17 -2 13 -5z m-1104 -11 c-7 -2 -19 -2 -25 0 -7 3 -2 5 12
5 14 0 19 -2 13 -5z m1398 -39 c-40 -19 -76 -34 -80 -33 -9 1 133 68 144 68 6
0 -23 -16 -64 -35z m-748 6 c9 -9 6 -10 -15 -5 -37 9 -86 -21 -97 -60 l-9 -30
-1 32 c-1 25 -8 36 -29 47 -16 8 -39 12 -50 9 -22 -5 -32 12 -11 19 27 9 201
-1 212 -12z m-856 -6 c-3 -3 -12 -4 -19 -1 -8 3 -5 6 6 6 11 1 17 -2 13 -5z
m98 -14 c27 -7 27 -8 5 -8 -14 0 -38 4 -55 8 -27 7 -27 8 -5 8 14 0 39 -4 55
-8z m1288 -7 c-7 -2 -19 -2 -25 0 -7 3 -2 5 12 5 14 0 19 -2 13 -5z m-603 -34
c0 -11 -4 -18 -10 -14 -5 3 -7 12 -3 20 7 21 13 19 13 -6z m868 -36 c-10 -2
-28 -2 -40 0 -13 2 -5 4 17 4 22 1 32 -1 23 -4z m-215 -10 c-7 -2 -19 -2 -25
0 -7 3 -2 5 12 5 14 0 19 -2 13 -5z m54 -9 c-3 -3 -12 -4 -19 -1 -8 3 -5 6 6
6 11 1 17 -2 13 -5z m-50 -10 c-3 -3 -12 -4 -19 -1 -8 3 -5 6 6 6 11 1 17 -2
13 -5z m100 0 c-3 -3 -12 -4 -19 -1 -8 3 -5 6 6 6 11 1 17 -2 13 -5z m50 -10
c-3 -3 -12 -4 -19 -1 -8 3 -5 6 6 6 11 1 17 -2 13 -5z m-60 -10 c-3 -3 -12 -4
-19 -1 -8 3 -5 6 6 6 11 1 17 -2 13 -5z m40 -10 c-3 -3 -12 -4 -19 -1 -8 3 -5
6 6 6 11 1 17 -2 13 -5z m-50 -40 c-3 -3 -12 -4 -19 -1 -8 3 -5 6 6 6 11 1 17
-2 13 -5z m-37 -60 c0 -2 -9 0 -20 6 -11 6 -20 13 -20 16 0 2 9 0 20 -6 11 -6
20 -13 20 -16z"/>
<path d="M2411 3637 c0 -37 -10 -103 -22 -147 -11 -44 -19 -88 -17 -98 2 -9
13 24 25 73 30 123 32 143 23 195 -7 43 -8 43 -9 -23z"/>
<path d="M2938 3298 c5 -5 16 -8 23 -6 8 3 3 7 -10 11 -17 4 -21 3 -13 -5z"/>
<path d="M2030 3270 l-65 -7 68 -1 c39 -1 67 2 67 8 0 6 -1 9 -2 8 -2 -1 -32
-4 -68 -8z"/>
<path d="M2910 3270 c57 -8 187 -13 179 -6 -2 2 -56 6 -119 9 -78 3 -97 3 -60
-3z"/>
<path d="M2208 3263 c7 -3 16 -2 19 1 4 3 -2 6 -13 5 -11 0 -14 -3 -6 -6z"/>
<path d="M2818 3263 c7 -3 16 -2 19 1 4 3 -2 6 -13 5 -11 0 -14 -3 -6 -6z"/>
<path d="M1730 3250 c-30 -5 -70 -6 -87 -3 -20 3 -33 1 -33 -5 0 -7 -20 -10
-52 -7 -29 2 -42 2 -29 -1 14 -3 33 -17 44 -30 10 -13 26 -24 35 -25 10 0 5
-6 -13 -14 l-30 -13 30 -4 c23 -2 29 -7 27 -21 -2 -14 1 -17 15 -13 10 3 32 8
48 11 29 5 29 5 -4 -8 l-34 -13 36 -30 c20 -16 59 -42 88 -57 47 -26 52 -27
72 -12 12 8 46 32 75 52 47 33 70 67 40 59 -7 -1 -10 -1 -5 1 12 8 8 33 -6 33
-7 0 -50 -18 -95 -40 -45 -21 -82 -37 -82 -35 0 3 49 30 110 60 84 42 121 55
157 56 27 1 62 5 78 9 57 15 -47 11 -127 -4 -76 -15 -142 -11 -116 6 8 6 -3 7
-32 4 l-45 -5 50 13 c38 10 45 14 30 19 -12 4 -8 5 12 3 18 -1 30 1 27 5 -2 4
6 10 18 12 40 8 -145 5 -202 -3z m-5 -60 c13 -6 15 -9 5 -9 -8 0 -22 4 -30 9
-18 12 -2 12 25 0z m52 4 c-3 -3 -12 -4 -19 -1 -8 3 -5 6 6 6 11 1 17 -2 13
-5z m-110 -10 c-3 -3 -12 -4 -19 -1 -8 3 -5 6 6 6 11 1 17 -2 13 -5z m220 -10
c-3 -3 -12 -4 -19 -1 -8 3 -5 6 6 6 11 1 17 -2 13 -5z m-70 -20 c-3 -3 -12 -4
-19 -1 -8 3 -5 6 6 6 11 1 17 -2 13 -5z m-40 -10 c-3 -3 -12 -4 -19 -1 -8 3
-5 6 6 6 11 1 17 -2 13 -5z m-22 -84 c-3 -5 -12 -10 -18 -10 -7 0 -6 4 3 10
19 12 23 12 15 0z"/>
<path d="M2168 3213 c12 -2 32 -2 45 0 12 2 2 4 -23 4 -25 0 -35 -2 -22 -4z"/>
<path d="M2818 3213 c6 -2 18 -2 25 0 6 3 1 5 -13 5 -14 0 -19 -2 -12 -5z"/>
<path d="M2175 3159 c5 -6 55 0 55 7 0 3 -13 3 -29 2 -16 -1 -28 -5 -26 -9z"/>
<path d="M2850 3160 c19 -5 37 -7 39 -4 2 2 9 -4 16 -12 13 -18 50 -12 58 10
4 9 -14 12 -72 13 -59 1 -68 -1 -41 -7z"/>
<path d="M3710 3086 c0 -2 7 -7 16 -10 8 -3 12 -2 9 4 -6 10 -25 14 -25 6z"/>
<path d="M1890 3027 c-80 -63 -179 -220 -225 -360 l-24 -72 30 35 30 35 -22
-49 c-19 -44 -21 -61 -16 -155 6 -106 24 -182 77 -311 20 -51 21 -62 12 -155
-6 -55 -8 -115 -5 -133 7 -45 -31 -98 -110 -153 -81 -57 -145 -116 -163 -151
-20 -38 -5 -35 37 8 18 19 65 56 104 82 38 26 84 59 102 75 18 16 33 24 33 19
0 -16 -87 -87 -156 -127 -69 -40 -117 -85 -93 -85 12 0 7 -17 -19 -69 -30 -62
-35 -80 -38 -163 -3 -89 -3 -90 6 -29 25 177 53 233 139 274 l50 24 -32 -39
c-74 -90 -108 -147 -128 -212 -19 -59 -21 -84 -16 -170 3 -56 13 -121 21 -146
l14 -45 2 45 2 45 13 -62 c17 -78 62 -173 119 -250 l44 -60 -50 -43 c-28 -24
-59 -62 -69 -84 -23 -50 -25 -136 -4 -177 18 -33 21 -31 -62 -49 -29 -7 -51
-15 -48 -20 9 -15 125 -29 297 -36 134 -5 175 -10 172 -19 -10 -26 60 -38 246
-43 155 -3 192 -1 230 13 74 27 86 28 152 7 85 -27 188 -34 342 -22 89 7 137
15 154 26 22 14 23 18 10 28 -11 8 27 11 151 12 235 1 348 30 233 59 -35 8
-39 13 -31 28 9 16 36 17 327 17 285 0 696 9 690 16 -2 1 -129 7 -283 13 -154
6 -336 14 -404 17 l-125 6 91 24 c395 102 697 360 774 662 46 180 12 377 -90
526 -17 25 -31 47 -31 50 0 3 18 11 41 17 43 13 79 50 79 80 0 11 -10 29 -21
40 -19 19 -29 21 -88 15 -99 -10 -155 -31 -195 -76 -63 -70 -60 -146 9 -290
104 -212 79 -377 -80 -536 -81 -81 -182 -145 -287 -180 -83 -29 -222 -50 -260
-41 l-25 7 24 50 c33 70 63 191 64 264 l1 61 12 -40 13 -39 6 39 c18 108 1
218 -53 332 l-29 63 25 -17 c14 -8 27 -13 30 -10 3 3 -7 31 -22 64 -18 38 -59
91 -117 152 -118 124 -151 192 -173 357 l-16 120 36 119 c45 149 58 248 45
339 -5 37 -14 77 -20 89 -9 19 -7 19 11 -3 l21 -25 -6 25 c-30 115 -162 318
-246 376 -32 22 -40 24 -58 12 -12 -7 -20 -16 -19 -20 2 -3 59 -66 126 -140
l124 -133 -129 133 c-70 72 -134 132 -140 132 -21 0 -15 -22 14 -54 26 -29 26
-29 -8 2 l-36 33 -59 -30 c-49 -25 -204 -76 -204 -67 0 2 27 24 61 50 33 26
59 49 57 51 -8 8 -135 -49 -188 -85 -137 -92 -163 -92 -320 4 -101 62 -180
102 -180 92 0 -3 32 -28 70 -57 39 -28 70 -53 70 -55 0 -1 -37 9 -82 24 -46
14 -93 26 -105 26 -11 1 -19 4 -17 7 2 3 -8 11 -23 18 -21 10 -29 9 -44 -5
-14 -13 -19 -14 -19 -4 0 8 -13 2 -32 -16 l-33 -29 34 37 c19 21 38 35 43 32
4 -3 8 -1 8 5 0 19 -21 23 -45 7 -14 -9 -84 -76 -157 -149 -73 -73 -108 -104
-78 -68 30 35 96 102 146 149 51 47 91 89 89 93 -3 4 -18 12 -35 17 -26 9 -34
7 -70 -21z m60 -122 c-15 -18 -15 -17 28 -39 27 -14 31 -20 21 -32 -10 -12
-16 -11 -46 7 -40 25 -37 27 -82 -61 -36 -70 -52 -121 -61 -190 -7 -51 -7 -52
-9 -14 -1 49 32 164 62 214 28 49 88 130 94 130 3 0 0 -7 -7 -15z m1174 -92
c40 -121 64 -292 52 -358 l-7 -37 -34 70 c-18 38 -37 72 -42 75 -5 3 -7 -22
-5 -56 3 -41 -3 -92 -17 -150 -23 -94 -91 -290 -98 -283 -2 2 3 26 13 53 18
52 24 168 8 195 -6 12 -9 -1 -10 -45 -1 -80 -43 -178 -129 -307 -89 -134 -139
-230 -175 -339 -32 -100 -85 -363 -77 -384 3 -6 6 0 6 14 1 36 54 136 97 184
21 24 33 32 29 20 -4 -11 -20 -63 -35 -115 -16 -52 -45 -131 -65 -175 -52
-113 -94 -221 -109 -277 l-12 -48 -67 137 c-63 129 -74 165 -101 313 l-6 34
31 -42 c35 -48 46 -54 25 -14 -27 54 -67 190 -101 352 -19 91 -35 167 -35 169
0 3 23 -20 50 -50 49 -52 50 -52 27 -14 -14 22 -48 71 -76 109 -61 80 -116
185 -136 259 -13 49 -14 50 -14 17 -1 -20 5 -60 13 -90 8 -30 13 -57 10 -59
-2 -2 -20 30 -39 71 -27 56 -38 94 -42 148 -7 81 -16 73 -29 -26 l-8 -59 -14
45 c-8 25 -15 83 -15 129 -2 83 -2 83 -16 47 -25 -66 -33 -40 -29 99 2 74 2
135 0 135 -2 0 -17 -28 -33 -62 l-30 -63 5 56 c7 68 32 142 91 266 41 87 47
95 67 88 79 -23 217 -56 298 -70 104 -18 153 -37 174 -67 9 -12 16 -16 21 -9
14 24 73 43 218 72 197 39 259 57 250 72 -5 9 -3 9 8 0 11 -8 21 -8 44 2 47
21 52 18 69 -32z m207 -90 c13 -16 12 -17 -3 -4 -10 7 -18 15 -18 17 0 8 8 3
21 -13z m-1626 -173 c-4 -17 -10 -61 -15 -98 -7 -61 -7 -63 -9 -20 -1 47 16
148 26 148 2 0 2 -14 -2 -30z m-8 -202 c-3 -8 -6 -5 -6 6 -1 11 2 17 5 13 3
-3 4 -12 1 -19z m1574 -174 c-37 -95 -128 -248 -240 -403 -45 -63 -94 -134
-108 -158 -14 -24 -27 -42 -30 -39 -6 6 66 120 155 244 90 125 191 300 222
382 12 33 25 59 27 56 2 -2 -10 -39 -26 -82z m-1266 -414 c29 -52 77 -126 105
-165 71 -95 78 -106 40 -65 -73 81 -245 371 -362 612 -58 119 -24 66 68 -107
53 -99 120 -223 149 -275z m1262 158 c-3 -7 -5 -2 -5 12 0 14 2 19 5 13 2 -7
2 -19 0 -25z m-1450 -30 c-3 -7 -5 -2 -5 12 0 14 2 19 5 13 2 -7 2 -19 0 -25z
m182 -808 c44 -179 86 -360 93 -402 l11 -78 41 -1 c23 0 64 -7 91 -14 l50 -13
-52 5 c-64 7 -173 -12 -224 -38 -21 -10 -50 -36 -64 -56 -14 -21 -25 -33 -25
-27 0 26 49 81 92 104 26 14 49 28 52 30 7 8 -32 220 -70 379 -72 299 -95 411
-134 642 -22 131 -40 243 -39 251 0 7 22 -93 49 -222 27 -129 85 -381 129
-560z m1258 738 c-2 -13 -4 -5 -4 17 -1 22 1 32 4 23 2 -10 2 -28 0 -40z m-17
-120 c-15 -106 -76 -344 -135 -529 -58 -181 -111 -383 -130 -501 -16 -98 -18
-104 -35 -93 -23 14 21 190 136 554 86 271 137 460 155 578 7 46 14 81 17 78
2 -2 -1 -41 -8 -87z m1063 62 c-58 -12 -93 -37 -114 -85 -18 -39 -19 -40 -19
-10 0 57 66 105 140 104 l35 -1 -42 -8z m-873 -121 c84 -70 137 -121 113 -110
-12 6 -25 16 -28 21 -4 6 -37 31 -74 55 -37 24 -75 53 -84 63 -16 18 -16 19 1
17 10 0 43 -21 72 -46z m-396 -66 c-14 -36 -45 -118 -70 -182 -102 -261 -124
-322 -159 -441 -20 -69 -41 -158 -47 -197 -19 -118 -21 -76 -4 77 17 155 53
328 91 439 30 90 76 191 85 191 4 0 33 41 65 90 32 50 59 90 61 90 2 0 -8 -30
-22 -67z m-1317 -95 c-2 -24 -4 -7 -4 37 0 44 2 63 4 43 2 -21 2 -57 0 -80z
m2683 -77 c33 -178 -17 -377 -126 -497 -24 -27 -41 -41 -38 -32 3 9 0 26 -6
38 -10 18 -6 32 23 88 63 120 70 162 69 392 l-1 205 34 -70 c19 -38 39 -94 45
-124z m-2738 47 c-7 -201 38 -329 175 -499 123 -154 139 -178 70 -104 -236
248 -317 455 -261 657 9 32 17 58 18 58 1 0 0 -51 -2 -112z m1214 75 c-8 -15
-15 -25 -16 -21 0 12 23 58 27 54 3 -2 -2 -17 -11 -33z m511 -15 c-3 -8 -6 -5
-6 6 -1 11 2 17 5 13 3 -3 4 -12 1 -19z m98 -55 c77 -93 113 -167 129 -263 4
-26 -8 -8 -45 64 -27 55 -74 137 -104 183 -30 45 -50 83 -46 83 5 0 35 -30 66
-67z m-1655 -168 c18 -49 41 -107 52 -128 11 -22 18 -40 16 -41 -2 -2 -23 22
-47 52 -24 30 -38 51 -31 47 8 -5 10 -2 6 11 -20 66 -66 252 -65 269 0 11 8
-11 19 -50 10 -38 33 -110 50 -160z m1579 40 c0 -75 -5 -144 -14 -184 -21 -86
-85 -207 -143 -268 -26 -27 -37 -38 -26 -24 57 68 122 184 144 257 22 69 25
98 25 232 0 84 3 143 7 130 3 -13 6 -77 7 -143z m-1304 73 c24 -52 60 -187 52
-194 -2 -2 -14 33 -26 78 -13 46 -32 99 -42 120 -20 39 -22 48 -13 48 3 0 16
-24 29 -52z m-378 0 c-3 -8 -6 -5 -6 6 -1 11 2 17 5 13 3 -3 4 -12 1 -19z
m1630 -45 c-3 -10 -5 -2 -5 17 0 19 2 27 5 18 2 -10 2 -26 0 -35z m-1588 -50
c12 -24 19 -43 16 -43 -5 0 -45 75 -45 86 0 11 6 2 29 -43z m435 -166 c14 -62
28 -148 31 -192 l5 -80 -30 120 c-17 66 -31 138 -31 160 0 29 -3 36 -10 25 -7
-11 -8 -6 -4 16 3 18 -1 59 -9 92 -9 33 -16 64 -15 68 2 21 41 -108 63 -209z
m1126 111 c-11 -30 -56 -111 -99 -181 -44 -70 -91 -157 -107 -192 -15 -36 -29
-64 -31 -62 -10 11 62 157 125 254 68 104 121 211 123 250 1 15 2 15 6 2 2 -9
-5 -40 -17 -71z m-705 -335 c-47 -228 -88 -377 -105 -388 -21 -13 -43 54 -80
255 -23 117 -39 214 -37 216 2 2 27 -46 57 -106 29 -61 54 -110 56 -110 1 0
12 30 24 68 35 106 123 317 128 304 2 -6 -18 -114 -43 -239z m1541 13 c-119
-173 -390 -303 -586 -279 l-65 7 90 7 c192 15 355 83 483 204 43 40 84 85 91
99 8 14 17 24 19 21 3 -3 -11 -29 -32 -59z m-966 -119 c0 -2 -15 -16 -32 -33
l-33 -29 29 33 c28 30 36 37 36 29z m-987 -164 c-13 -2 -33 -2 -45 0 -13 2 -3
4 22 4 25 0 35 -2 23 -4z m-453 -11 c0 -4 -14 -13 -30 -20 -71 -32 -129 -121
-130 -202 -1 -34 -3 -40 -10 -25 -24 56 1 156 51 202 44 40 119 69 119 45z
m512 -18 c36 -11 72 -29 95 -51 l38 -35 -35 20 c-56 33 -141 64 -195 72 l-50
8 44 1 c25 0 71 -6 103 -15z m-402 -3 c23 -6 21 -8 -25 -31 -92 -46 -137 -143
-107 -229 10 -30 10 -31 -16 -31 -33 0 -45 8 -61 37 -28 54 -6 137 53 197 56
55 102 72 156 57z m937 3 c-3 -3 -12 -4 -19 -1 -8 3 -5 6 6 6 11 1 17 -2 13
-5z m499 -26 c67 -46 100 -138 73 -203 -12 -29 -13 -28 -20 37 -8 76 -31 120
-87 169 -39 35 -19 33 34 -3z m-558 15 c-31 -8 -20 -20 13 -15 54 8 164 -17
214 -49 55 -35 85 -92 83 -159 l-1 -45 -6 50 c-13 108 -91 170 -228 182 -88 7
-113 1 -159 -40 -70 -61 -94 -164 -55 -240 22 -43 18 -45 -27 -17 -71 43 -91
161 -42 234 40 57 130 106 195 104 17 0 22 -2 13 -5z m486 -27 c55 -41 80 -92
81 -157 0 -42 -5 -62 -19 -78 -26 -29 -50 -28 -40 2 4 12 7 44 7 71 -1 64 -40
121 -110 157 -28 15 -49 30 -45 34 14 14 93 -3 126 -29z m-1314 -46 c-39 -41
-53 -90 -48 -161 4 -49 2 -59 -12 -59 -49 0 -85 69 -70 136 14 63 62 98 152
113 3 1 -7 -13 -22 -29z m1216 4 c73 -35 101 -148 48 -200 -18 -18 -32 -24
-47 -20 -12 3 -27 6 -34 6 -9 0 -10 14 -6 49 6 57 -9 109 -44 151 l-25 30 37
0 c20 0 52 -7 71 -16z m-881 -55 c66 -58 70 -160 7 -209 -32 -26 -91 -23 -123
6 -46 42 -43 135 7 202 32 41 63 41 109 1z m532 -1 c33 -37 43 -64 43 -118 0
-44 -5 -56 -29 -81 -35 -34 -68 -37 -104 -8 -56 43 -54 144 3 201 34 34 60 36
87 6z m-737 -20 c-24 -40 -27 -130 -5 -172 16 -30 16 -30 -5 -11 -47 42 -46
141 1 191 30 32 32 30 9 -8z m887 -92 c4 -29 0 -53 -12 -75 -19 -38 -30 -36
-15 3 14 39 12 91 -5 133 -21 49 -19 54 6 15 12 -18 24 -52 26 -76z m-1020 42
c-3 -7 -5 -2 -5 12 0 14 2 19 5 13 2 -7 2 -19 0 -25z"/>
<path d="M2421 2645 c-1 -25 40 -114 81 -178 l31 -49 43 83 c24 46 46 90 49
98 11 28 -21 -8 -41 -46 -10 -21 -25 -44 -31 -51 -7 -7 -13 -25 -13 -40 0 -23
-5 -19 -35 31 -20 32 -46 84 -60 115 -13 32 -24 48 -24 37z"/>
<path d="M2246 2610 c-39 -97 1 -214 96 -282 30 -21 29 -18 -11 27 -24 28 -52
68 -62 90 -20 44 -25 129 -9 171 6 15 9 29 7 31 -3 2 -12 -14 -21 -37z"/>
<path d="M2639 2635 c-3 -5 -6 -30 -7 -55 l-1 -45 10 40 c10 40 8 78 -2 60z"/>
<path d="M2916 2179 c-11 -67 -55 -145 -129 -226 -75 -82 -78 -76 -20 42 38
77 16 58 -40 -35 -32 -54 -87 -180 -87 -201 0 -6 12 4 27 23 15 18 66 74 114
124 100 105 139 172 147 256 6 67 -2 78 -12 17z"/>
<path d="M2589 2109 c-42 -43 -74 -79 -72 -79 14 0 94 76 122 115 18 25 31 45
29 44 -2 0 -37 -36 -79 -80z"/>
<path d="M2346 2073 c10 -18 43 -57 73 -85 l55 -53 -64 75 c-84 98 -86 101
-64 63z"/>
<path d="M2195 2040 c15 -61 91 -193 141 -247 56 -59 56 -45 2 35 -16 23 -26
42 -23 42 4 0 -7 17 -23 38 -16 20 -46 64 -67 97 -20 33 -34 49 -30 35z"/>
<path d="M2336 1849 c94 -110 129 -155 154 -200 l28 -52 31 49 c38 59 87 160
96 194 7 30 -41 -42 -95 -142 l-36 -67 -12 33 c-14 39 -132 180 -164 197 l-23
12 21 -24z"/>
<path d="M2406 1480 c17 -92 84 -247 134 -310 27 -33 22 -20 -55 155 -88 200
-86 198 -79 155z"/>
<path d="M3830 3005 c13 -14 26 -25 28 -25 3 0 -5 11 -18 25 -13 14 -26 25
-28 25 -3 0 5 -11 18 -25z"/>
<path d="M3375 2960 c10 -11 20 -20 23 -20 3 0 -3 9 -13 20 -10 11 -20 20 -23
20 -3 0 3 -9 13 -20z"/>
<path d="M1339 2893 c-13 -16 -12 -17 4 -4 9 7 17 15 17 17 0 8 -8 3 -21 -13z"/>
<path d="M1654 2878 l-19 -23 23 19 c21 18 27 26 19 26 -2 0 -12 -10 -23 -22z"/>
<path d="M3720 2855 c19 -19 36 -35 39 -35 3 0 -10 16 -29 35 -19 19 -36 35
-39 35 -3 0 10 -16 29 -35z"/>
</g>
</svg>